<svg width="20" height="21" viewBox="0 0 20 21" fill="none" xmlns="http://www.w3.org/2000/svg">
<path d="M19.2857 6.89673H16.8214L13.4643 1.02118C13.3639 0.845281 13.2036 0.720153 13.0188 0.673327C12.8339 0.626501 12.6396 0.661812 12.4786 0.771493C12.3175 0.881174 12.203 1.05624 12.1601 1.25818C12.1173 1.46011 12.1496 1.67238 12.25 1.84829L15.1429 6.89673H4.85714L7.71429 1.84829C7.764 1.76119 7.79752 1.66425 7.81294 1.56299C7.82836 1.46174 7.82537 1.35817 7.80415 1.25818C7.78292 1.15819 7.74388 1.06374 7.68924 0.980238C7.6346 0.896733 7.56545 0.825801 7.48571 0.771493C7.32469 0.661812 7.13038 0.626501 6.94552 0.673327C6.76066 0.720153 6.6004 0.845281 6.5 1.02118L3.17857 6.89673H0.714286C0.524845 6.89673 0.343164 6.97894 0.209209 7.12527C0.0752549 7.27161 0 7.47007 0 7.67702V10.7982C0 11.0051 0.0752549 11.2036 0.209209 11.3499C0.343164 11.4962 0.524845 11.5784 0.714286 11.5784H1.42857L3.14286 20.3254C3.17771 20.5029 3.2681 20.6615 3.39847 20.7741C3.52884 20.8866 3.69104 20.9459 3.85714 20.9419H16.1214C16.2875 20.9459 16.4497 20.8866 16.5801 20.7741C16.7105 20.6615 16.8009 20.5029 16.8357 20.3254L18.5714 11.5784H19.2857C19.4752 11.5784 19.6568 11.4962 19.7908 11.3499C19.9247 11.2036 20 11.0051 20 10.7982V7.67702C20 7.47007 19.9247 7.27161 19.7908 7.12527C19.6568 6.97894 19.4752 6.89673 19.2857 6.89673ZM1.42857 8.4573H18.5714V10.0179H1.42857V8.4573ZM15.5429 19.3813H4.45714L2.92143 11.5784H17.0786L15.5429 19.3813ZM6.42857 17.9456L5.71429 13.2639C5.68398 13.0569 5.73016 12.8453 5.84268 12.6756C5.9552 12.5058 6.12485 12.3918 6.31429 12.3587C6.50373 12.3256 6.69745 12.3761 6.85284 12.499C7.00822 12.6219 7.11255 12.8072 7.14286 13.0142L7.85714 17.6959C7.87341 17.7985 7.87071 17.9036 7.84919 18.0051C7.82767 18.1066 7.78778 18.2023 7.73186 18.2867C7.67594 18.371 7.60513 18.4423 7.5236 18.4963C7.44207 18.5503 7.35147 18.5859 7.25714 18.601H7.14286C6.97165 18.6034 6.80535 18.5386 6.67424 18.4183C6.54314 18.298 6.45595 18.1302 6.42857 17.9456ZM12.1429 17.6959L12.8571 13.0142C12.8722 12.9117 12.9055 12.8135 12.9553 12.7251C13.005 12.6367 13.0702 12.5599 13.1472 12.499C13.2241 12.4381 13.3113 12.3944 13.4037 12.3703C13.4961 12.3463 13.5919 12.3423 13.6857 12.3587C13.7795 12.3751 13.8694 12.4115 13.9504 12.4659C14.0313 12.5203 14.1016 12.5915 14.1573 12.6756C14.213 12.7596 14.253 12.8548 14.2751 12.9558C14.2971 13.0567 14.3007 13.1614 14.2857 13.2639L13.5714 17.9456C13.544 18.1302 13.4569 18.298 13.3258 18.4183C13.1947 18.5386 13.0284 18.6034 12.8571 18.601H12.7429C12.6485 18.5859 12.5579 18.5503 12.4764 18.4963C12.3949 18.4423 12.3241 18.371 12.2681 18.2867C12.2122 18.2023 12.1723 18.1066 12.1508 18.0051C12.1293 17.9036 12.1266 17.7985 12.1429 17.6959Z" fill="black"/>
</svg>
