<svg width="113" height="35" viewBox="0 0 113 35" fill="none" xmlns="http://www.w3.org/2000/svg">
<g filter="url(#filter0_d_17_190)">
<path d="M17.016 13.744C18.4667 13.744 19.608 13.3493 20.44 12.56C21.2933 11.7707 21.72 10.6827 21.72 9.296C21.72 7.33333 21.2187 5.73333 20.216 4.496C19.2347 3.23733 17.7947 2.608 15.896 2.608C14.4453 2.608 13.1227 3.024 11.928 3.856V23.376L16.888 24.752L16.248 26.032H4.92V25.04L7.928 22.672V3.216L4.6 2.128L5.24 0.848H8.952C11.0213 0.848 13.0587 0.783999 15.064 0.655998C16.5573 0.570665 17.656 0.527998 18.36 0.527998C19.8533 0.527998 21.176 0.847998 22.328 1.488C23.5013 2.10667 24.408 2.97066 25.048 4.08C25.688 5.18933 26.008 6.416 26.008 7.76C26.008 9.25333 25.464 10.6613 24.376 11.984C23.288 13.3067 21.9013 14.3413 20.216 15.088C18.5307 15.8347 16.8773 16.1653 15.256 16.08L13.752 14.992L14.392 13.712H16.984L17.016 13.744ZM43.9375 0.207998C46.1988 0.207998 48.1935 0.751998 49.9215 1.84C51.6708 2.928 53.0255 4.432 53.9855 6.352C54.9455 8.272 55.4255 10.448 55.4255 12.88C55.4255 15.376 54.7002 17.68 53.2495 19.792C51.7988 21.904 49.9962 23.5787 47.8415 24.816C45.6868 26.032 43.6282 26.64 41.6655 26.64C39.4042 26.64 37.3988 26.1067 35.6495 25.04C33.9215 23.952 32.5775 22.448 31.6175 20.528C30.6575 18.608 30.1775 16.432 30.1775 14C30.1775 11.504 30.9028 9.2 32.3535 7.088C33.8042 4.95467 35.6068 3.28 37.7615 2.064C39.9162 0.826665 41.9748 0.207998 43.9375 0.207998ZM42.0815 2.896C40.6735 2.896 39.3828 3.312 38.2095 4.144C37.0575 4.95467 36.1508 6.096 35.4895 7.568C34.8282 9.01867 34.4975 10.6507 34.4975 12.464C34.4975 14.5547 34.8282 16.4747 35.4895 18.224C36.1508 19.952 37.1535 21.3387 38.4975 22.384C39.8628 23.4293 41.5375 23.952 43.5215 23.952C44.9295 23.952 46.2095 23.5467 47.3615 22.736C48.5348 21.904 49.4522 20.7627 50.1135 19.312C50.7748 17.84 51.1055 16.1973 51.1055 14.384C51.1055 12.272 50.7748 10.352 50.1135 8.624C49.4522 6.87467 48.4495 5.488 47.1055 4.464C45.7615 3.41866 44.0868 2.896 42.0815 2.896ZM73.7203 20.336C73.7203 19.6747 73.4536 19.056 72.9203 18.48C72.3869 17.904 71.7149 17.3813 70.9043 16.912C70.1149 16.4213 69.0376 15.824 67.6723 15.12C66.0509 14.2667 64.7496 13.5413 63.7683 12.944C62.7869 12.3253 61.9443 11.6 61.2403 10.768C60.5576 9.936 60.2163 9.01867 60.2163 8.016C60.2163 6.94933 60.6643 5.808 61.5603 4.592C62.4563 3.35467 63.5443 2.32 64.8243 1.488C66.1256 0.634665 67.3203 0.207998 68.4083 0.207998C69.7309 0.207998 71.2669 0.367999 73.0163 0.688C74.7656 1.008 76.0456 1.34933 76.8563 1.712V7.92H75.6403C74.5949 6.192 73.4429 4.848 72.1843 3.888C70.9469 2.928 69.6456 2.448 68.2803 2.448C67.0643 2.448 66.0936 2.832 65.3683 3.6C64.6643 4.34667 64.3123 5.328 64.3123 6.544C64.3123 7.248 64.5789 7.90933 65.1123 8.528C65.6669 9.12533 66.3389 9.65867 67.1283 10.128C67.9389 10.5973 69.0589 11.2053 70.4883 11.952C72.0669 12.7413 73.3469 13.4453 74.3283 14.064C75.3096 14.6613 76.1309 15.3653 76.7923 16.176C77.4749 16.9653 77.8163 17.8613 77.8163 18.864C77.8163 19.9307 77.3363 21.0827 76.3763 22.32C75.4163 23.536 74.2429 24.5707 72.8563 25.424C71.4909 26.256 70.2429 26.672 69.1123 26.672C67.7256 26.672 66.0723 26.512 64.1523 26.192C62.2536 25.872 60.8883 25.5307 60.0563 25.168V18.96H61.2723C62.3603 20.688 63.5976 22.032 64.9843 22.992C66.3709 23.952 67.8003 24.432 69.2723 24.432C70.1469 24.432 70.9256 24.24 71.6083 23.856C72.2909 23.472 72.8136 22.9707 73.1763 22.352C73.5389 21.712 73.7203 21.04 73.7203 20.336ZM108.351 26H98.6225V25.008L101.631 22.64V14.192H88.9905V23.568L92.3505 24.72L91.7105 26H81.9825V25.008L84.9905 22.64V3.248L81.6625 2.128L82.3025 0.848H92.0305V1.84L88.9905 4.208V12.752H101.631V3.248L98.3025 2.128L98.9425 0.848H108.671V1.84L105.631 4.208V23.568L108.991 24.72L108.351 26Z" fill="black"/>
</g>
<defs>
<filter id="filter0_d_17_190" x="0.600006" y="0.208" width="112.39" height="34.464" filterUnits="userSpaceOnUse" color-interpolation-filters="sRGB">
<feFlood flood-opacity="0" result="BackgroundImageFix"/>
<feColorMatrix in="SourceAlpha" type="matrix" values="0 0 0 0 0 0 0 0 0 0 0 0 0 0 0 0 0 0 127 0" result="hardAlpha"/>
<feOffset dy="4"/>
<feGaussianBlur stdDeviation="2"/>
<feComposite in2="hardAlpha" operator="out"/>
<feColorMatrix type="matrix" values="0 0 0 0 0 0 0 0 0 0 0 0 0 0 0 0 0 0 0.6 0"/>
<feBlend mode="normal" in2="BackgroundImageFix" result="effect1_dropShadow_17_190"/>
<feBlend mode="normal" in="SourceGraphic" in2="effect1_dropShadow_17_190" result="shape"/>
</filter>
</defs>
</svg>
