<svg width="105" height="27" viewBox="0 0 105 27" fill="none" xmlns="http://www.w3.org/2000/svg">
<path d="M13.016 13.744C14.4667 13.744 15.608 13.3493 16.44 12.56C17.2933 11.7707 17.72 10.6827 17.72 9.296C17.72 7.33333 17.2187 5.73333 16.216 4.496C15.2347 3.23733 13.7947 2.608 11.896 2.608C10.4453 2.608 9.12267 3.024 7.928 3.856V23.376L12.888 24.752L12.248 26.032H0.92V25.04L3.928 22.672V3.216L0.6 2.128L1.24 0.848H4.952C7.02133 0.848 9.05867 0.783999 11.064 0.655998C12.5573 0.570665 13.656 0.527998 14.36 0.527998C15.8533 0.527998 17.176 0.847998 18.328 1.488C19.5013 2.10667 20.408 2.97066 21.048 4.08C21.688 5.18933 22.008 6.416 22.008 7.76C22.008 9.25333 21.464 10.6613 20.376 11.984C19.288 13.3067 17.9013 14.3413 16.216 15.088C14.5307 15.8347 12.8773 16.1653 11.256 16.08L9.752 14.992L10.392 13.712H12.984L13.016 13.744ZM39.9375 0.207998C42.1988 0.207998 44.1935 0.751998 45.9215 1.84C47.6708 2.928 49.0255 4.432 49.9855 6.352C50.9455 8.272 51.4255 10.448 51.4255 12.88C51.4255 15.376 50.7002 17.68 49.2495 19.792C47.7988 21.904 45.9962 23.5787 43.8415 24.816C41.6868 26.032 39.6282 26.64 37.6655 26.64C35.4042 26.64 33.3988 26.1067 31.6495 25.04C29.9215 23.952 28.5775 22.448 27.6175 20.528C26.6575 18.608 26.1775 16.432 26.1775 14C26.1775 11.504 26.9028 9.2 28.3535 7.088C29.8042 4.95467 31.6068 3.28 33.7615 2.064C35.9162 0.826665 37.9748 0.207998 39.9375 0.207998ZM38.0815 2.896C36.6735 2.896 35.3828 3.312 34.2095 4.144C33.0575 4.95467 32.1508 6.096 31.4895 7.568C30.8282 9.01867 30.4975 10.6507 30.4975 12.464C30.4975 14.5547 30.8282 16.4747 31.4895 18.224C32.1508 19.952 33.1535 21.3387 34.4975 22.384C35.8628 23.4293 37.5375 23.952 39.5215 23.952C40.9295 23.952 42.2095 23.5467 43.3615 22.736C44.5348 21.904 45.4522 20.7627 46.1135 19.312C46.7748 17.84 47.1055 16.1973 47.1055 14.384C47.1055 12.272 46.7748 10.352 46.1135 8.624C45.4522 6.87467 44.4495 5.488 43.1055 4.464C41.7615 3.41866 40.0868 2.896 38.0815 2.896ZM69.7203 20.336C69.7203 19.6747 69.4536 19.056 68.9203 18.48C68.3869 17.904 67.7149 17.3813 66.9043 16.912C66.1149 16.4213 65.0376 15.824 63.6723 15.12C62.0509 14.2667 60.7496 13.5413 59.7683 12.944C58.7869 12.3253 57.9443 11.6 57.2403 10.768C56.5576 9.936 56.2163 9.01867 56.2163 8.016C56.2163 6.94933 56.6643 5.808 57.5603 4.592C58.4563 3.35467 59.5443 2.32 60.8243 1.488C62.1256 0.634665 63.3203 0.207998 64.4083 0.207998C65.7309 0.207998 67.2669 0.367999 69.0163 0.688C70.7656 1.008 72.0456 1.34933 72.8563 1.712V7.92H71.6403C70.5949 6.192 69.4429 4.848 68.1843 3.888C66.9469 2.928 65.6456 2.448 64.2803 2.448C63.0643 2.448 62.0936 2.832 61.3683 3.6C60.6643 4.34667 60.3123 5.328 60.3123 6.544C60.3123 7.248 60.5789 7.90933 61.1123 8.528C61.6669 9.12533 62.3389 9.65867 63.1283 10.128C63.9389 10.5973 65.0589 11.2053 66.4883 11.952C68.0669 12.7413 69.3469 13.4453 70.3283 14.064C71.3096 14.6613 72.1309 15.3653 72.7923 16.176C73.4749 16.9653 73.8163 17.8613 73.8163 18.864C73.8163 19.9307 73.3363 21.0827 72.3763 22.32C71.4163 23.536 70.2429 24.5707 68.8563 25.424C67.4909 26.256 66.2429 26.672 65.1123 26.672C63.7256 26.672 62.0723 26.512 60.1523 26.192C58.2536 25.872 56.8883 25.5307 56.0563 25.168V18.96H57.2723C58.3603 20.688 59.5976 22.032 60.9843 22.992C62.3709 23.952 63.8003 24.432 65.2723 24.432C66.1469 24.432 66.9256 24.24 67.6083 23.856C68.2909 23.472 68.8136 22.9707 69.1763 22.352C69.5389 21.712 69.7203 21.04 69.7203 20.336ZM104.351 26H94.6225V25.008L97.6305 22.64V14.192H84.9905V23.568L88.3505 24.72L87.7105 26H77.9825V25.008L80.9905 22.64V3.248L77.6625 2.128L78.3025 0.848H88.0305V1.84L84.9905 4.208V12.752H97.6305V3.248L94.3025 2.128L94.9425 0.848H104.671V1.84L101.631 4.208V23.568L104.991 24.72L104.351 26Z" fill="black"/>
</svg>
