<svg width="805" height="200" viewBox="0 0 805 200" fill="none" xmlns="http://www.w3.org/2000/svg">
<path d="M93.12 102.08C104 102.08 112.56 99.12 118.8 93.2C125.2 87.28 128.4 79.12 128.4 68.72C128.4 54 124.64 42 117.12 32.72C109.76 23.28 98.96 18.56 84.72 18.56C73.84 18.56 63.92 21.68 54.96 27.92V174.32L92.16 184.64L87.36 194.24H2.4V186.8L24.96 169.04V23.12L1.78814e-07 14.96L4.8 5.36H32.64C48.16 5.36 63.44 4.87999 78.48 3.91999C89.68 3.27999 97.92 2.95998 103.2 2.95998C114.4 2.95998 124.32 5.35999 132.96 10.16C141.76 14.8 148.56 21.28 153.36 29.6C158.16 37.92 160.56 47.12 160.56 57.2C160.56 68.4 156.48 78.96 148.32 88.88C140.16 98.8 129.76 106.56 117.12 112.16C104.48 117.76 92.08 120.24 79.92 119.6L68.64 111.44L73.44 101.84H92.88L93.12 102.08ZM302.231 0.559987C319.191 0.559987 334.151 4.63999 347.111 12.8C360.231 20.96 370.391 32.24 377.591 46.64C384.791 61.04 388.391 77.36 388.391 95.6C388.391 114.32 382.951 131.6 372.071 147.44C361.191 163.28 347.671 175.84 331.511 185.12C315.351 194.24 299.911 198.8 285.191 198.8C268.231 198.8 253.191 194.8 240.071 186.8C227.111 178.64 217.031 167.36 209.831 152.96C202.631 138.56 199.031 122.24 199.031 104C199.031 85.28 204.471 68 215.351 52.16C226.231 36.16 239.751 23.6 255.911 14.48C272.071 5.19999 287.511 0.559987 302.231 0.559987ZM288.311 20.72C277.751 20.72 268.071 23.84 259.271 30.08C250.631 36.16 243.831 44.72 238.871 55.76C233.911 66.64 231.431 78.88 231.431 92.48C231.431 108.16 233.911 122.56 238.871 135.68C243.831 148.64 251.351 159.04 261.431 166.88C271.671 174.72 284.231 178.64 299.111 178.64C309.671 178.64 319.271 175.6 327.911 169.52C336.711 163.28 343.591 154.72 348.551 143.84C353.511 132.8 355.991 120.48 355.991 106.88C355.991 91.04 353.511 76.64 348.551 63.68C343.591 50.56 336.071 40.16 325.991 32.48C315.911 24.64 303.351 20.72 288.311 20.72ZM532.802 151.52C532.802 146.56 530.802 141.92 526.802 137.6C522.802 133.28 517.762 129.36 511.682 125.84C505.762 122.16 497.682 117.68 487.442 112.4C475.282 106 465.522 100.56 458.162 96.08C450.802 91.44 444.482 86 439.202 79.76C434.082 73.52 431.522 66.64 431.522 59.12C431.522 51.12 434.882 42.56 441.602 33.44C448.322 24.16 456.482 16.4 466.082 10.16C475.842 3.75999 484.802 0.559987 492.962 0.559987C502.882 0.559987 514.402 1.75999 527.522 4.16C540.642 6.56 550.242 9.11999 556.322 11.84V58.4H547.202C539.362 45.44 530.722 35.36 521.282 28.16C512.002 20.96 502.242 17.36 492.002 17.36C482.882 17.36 475.602 20.24 470.162 26C464.882 31.6 462.242 38.96 462.242 48.08C462.242 53.36 464.242 58.32 468.242 62.96C472.402 67.44 477.442 71.44 483.362 74.96C489.442 78.48 497.842 83.04 508.562 88.64C520.402 94.56 530.002 99.84 537.362 104.48C544.722 108.96 550.882 114.24 555.842 120.32C560.962 126.24 563.522 132.96 563.522 140.48C563.522 148.48 559.922 157.12 552.722 166.4C545.522 175.52 536.722 183.28 526.322 189.68C516.082 195.92 506.722 199.04 498.242 199.04C487.842 199.04 475.442 197.84 461.042 195.44C446.802 193.04 436.562 190.48 430.322 187.76V141.2H439.442C447.602 154.16 456.882 164.24 467.282 171.44C477.682 178.64 488.402 182.24 499.442 182.24C506.002 182.24 511.842 180.8 516.962 177.92C522.082 175.04 526.002 171.28 528.722 166.64C531.442 161.84 532.802 156.8 532.802 151.52ZM799.729 194H726.769V186.56L749.329 168.8V105.44H654.529V175.76L679.729 184.4L674.929 194H601.969V186.56L624.529 168.8V23.36L599.569 14.96L604.369 5.36H677.329V12.8L654.529 30.56V94.64H749.329V23.36L724.369 14.96L729.169 5.36H802.129V12.8L779.329 30.56V175.76L804.529 184.4L799.729 194Z" fill="white" fill-opacity="0.15"/>
</svg>
