<svg width="26" height="27" viewBox="0 0 26 27" fill="none" xmlns="http://www.w3.org/2000/svg">
<path d="M23.9598 22.489C25 20.7207 25 18.3138 25 13.5C25 8.68613 25 6.27919 23.9598 4.51104C23.3777 3.52166 22.5792 2.68982 21.6294 2.08353C19.9319 1 17.6213 1 13 1C8.37869 1 6.06802 1 4.3706 2.08353C3.4208 2.68982 2.62223 3.52166 2.04019 4.51104C1 6.27919 1 8.68613 1 13.5C1 18.3138 1 20.7207 2.04019 22.489C2.62223 23.4784 3.4208 24.3101 4.3706 24.9165C6.06802 26 8.37869 26 13 26C17.6213 26 19.9319 26 21.6294 24.9165C22.5792 24.3101 23.3777 23.4784 23.9598 22.489Z" stroke="#F5F5F5" stroke-width="1.25" stroke-linecap="round"/>
<path d="M20.7648 6.14692C20.7648 6.553 20.4487 6.88221 20.0589 6.88221C19.6691 6.88221 19.353 6.553 19.353 6.14692C19.353 5.74083 19.6691 5.41162 20.0589 5.41162C20.4487 5.41162 20.7648 5.74083 20.7648 6.14692Z" stroke="#F5F5F5" stroke-width="1.25" stroke-linecap="round"/>
<path d="M18.6471 13.5C18.6471 16.7487 16.1188 19.3824 13.0001 19.3824C9.8813 19.3824 7.35303 16.7487 7.35303 13.5C7.35303 10.2513 9.8813 7.61768 13.0001 7.61768C16.1188 7.61768 18.6471 10.2513 18.6471 13.5Z" stroke="#F5F5F5" stroke-width="1.25" stroke-linecap="round"/>
</svg>
