<svg width="23" height="27" viewBox="0 0 23 27" fill="none" xmlns="http://www.w3.org/2000/svg">
<path d="M22 11.0001C22 17.2415 14.7301 23.7415 12.2888 25.7491C12.0614 25.9119 11.7845 26 11.5 26C11.2155 26 10.9386 25.9119 10.7112 25.7491C8.26994 23.7415 1 17.2415 1 11.0001C1 8.34793 2.10625 5.80436 4.07538 3.92897C6.04451 2.05358 8.71523 1 11.5 1C14.2848 1 16.9555 2.05358 18.9246 3.92897C20.8938 5.80436 22 8.34793 22 11.0001Z" stroke="white" stroke-linecap="round" stroke-linejoin="round"/>
<path d="M11.5 14.7502C13.6746 14.7502 15.4375 13.0712 15.4375 11.0001C15.4375 8.92903 13.6746 7.25008 11.5 7.25008C9.32538 7.25008 7.5625 8.92903 7.5625 11.0001C7.5625 13.0712 9.32538 14.7502 11.5 14.7502Z" stroke="white" stroke-linecap="round" stroke-linejoin="round"/>
</svg>
